<svg width="25" height="29" viewBox="0 0 25 29" fill="none" xmlns="http://www.w3.org/2000/svg">
<path d="M24.9953 27.4021L22.8 6.89505C22.7539 6.46575 22.385 6.13977 21.9449 6.13977H17.8186V5.21695C17.8186 2.34043 15.4326 0 12.5001 0C9.56737 0 7.18137 2.34043 7.18137 5.21695V6.13977H3.05509C2.615 6.13977 2.24609 6.46575 2.20004 6.89505L0.00466751 27.4021C-0.0206755 27.6397 0.0579981 27.8768 0.220855 28.0545C0.383932 28.232 0.616206 28.3333 0.859719 28.3333H24.1401C24.3838 28.3333 24.6161 28.232 24.7789 28.0545C24.9422 27.8768 25.0207 27.6397 24.9953 27.4021ZM8.90073 5.21695C8.90073 3.27038 10.5154 1.68653 12.5001 1.68653C14.4846 1.68653 16.0993 3.27038 16.0993 5.21695V6.13977H8.90073V5.21695ZM1.81438 26.6468L3.82926 7.8263H7.18137V9.68468C7.18137 10.1503 7.56637 10.5279 8.04105 10.5279C8.51574 10.5279 8.90073 10.1503 8.90073 9.68468V7.8263H16.0993V9.68468C16.0993 10.1503 16.4843 10.5279 16.9589 10.5279C17.4336 10.5279 17.8186 10.1503 17.8186 9.68468V7.8263H21.1707L23.1856 26.6468H1.81438Z" fill="#313131"/>
</svg>
