<svg width="20" height="20" viewBox="0 0 20 20" fill="none" xmlns="http://www.w3.org/2000/svg">
<path d="M11.4556 10.0028L19.6753 1.828C20.0694 1.4379 20.0694 0.806399 19.6753 0.417297C19.2822 0.0272006 18.6438 0.0272006 18.2507 0.417297L10.038 8.58511L1.74938 0.295558C1.3563 -0.0985193 0.717831 -0.0985193 0.324749 0.295558C-0.0683333 0.69063 -0.0683333 1.33009 0.324749 1.72417L8.60734 10.0078L0.294812 18.2743C-0.0982705 18.6644 -0.0982705 19.2959 0.294812 19.685C0.687894 20.0751 1.32636 20.0751 1.71944 19.685L10.0249 11.4254L18.2806 19.6821C18.6736 20.0761 19.3121 20.0761 19.7052 19.6821C20.0983 19.287 20.0983 18.6475 19.7052 18.2534L11.4556 10.0028Z" fill="#E3E3E3"/>
</svg>
