<svg width="53" height="70" viewBox="0 0 53 70" fill="none" xmlns="http://www.w3.org/2000/svg">
<path d="M40.3609 0.270389C40.2808 0.186008 40.1847 0.118585 40.0781 0.0721329C39.9715 0.0256813 39.8566 0.00115026 39.7403 0H1.2006C0.969371 0.00215153 0.748167 0.0946972 0.584298 0.257842C0.420429 0.420988 0.326906 0.641779 0.32373 0.872992V69.127C0.326906 69.3582 0.420429 69.579 0.584298 69.7422C0.748167 69.9053 0.969371 69.9978 1.2006 70H51.66C51.8912 69.9978 52.1124 69.9053 52.2763 69.7422C52.4402 69.579 52.5337 69.3582 52.5368 69.127V13.2756C52.5338 13.0514 52.445 12.8369 52.2887 12.6762L40.3609 0.270389ZM40.6311 3.01057L49.6393 12.4795H40.6311V3.01057ZM2.04504 68.2787V1.72131H38.9098V13.2756C38.9098 13.751 39.265 14.2008 39.7403 14.2008H50.8155V68.2787H2.04504Z" fill="#0E6063"/>
<path d="M42.4128 57.2333H9.52569C9.29743 57.2333 9.07853 57.324 8.91712 57.4854C8.75572 57.6468 8.66504 57.8657 8.66504 58.094C8.66504 58.3223 8.75572 58.5412 8.91712 58.7026C9.07853 58.864 9.29743 58.9546 9.52569 58.9546H42.4128C42.641 58.9546 42.86 58.864 43.0214 58.7026C43.1828 58.5412 43.2734 58.3223 43.2734 58.094C43.2734 57.8657 43.1828 57.6468 43.0214 57.4854C42.86 57.324 42.641 57.2333 42.4128 57.2333Z" fill="#0E6063"/>
<path d="M9.52569 50.7789H28.5775C28.8057 50.7789 29.0246 50.6882 29.186 50.5268C29.3474 50.3654 29.4381 50.1465 29.4381 49.9182C29.4381 49.69 29.3474 49.471 29.186 49.3096C29.0246 49.1482 28.8057 49.0576 28.5775 49.0576H9.52569C9.29743 49.0576 9.07853 49.1482 8.91712 49.3096C8.75572 49.471 8.66504 49.69 8.66504 49.9182C8.66504 50.1465 8.75572 50.3654 8.91712 50.5268C9.07853 50.6882 9.29743 50.7789 9.52569 50.7789Z" fill="#0E6063"/>
<path d="M37.4773 18.9463L26.2562 15.0433C26.0904 14.9856 25.9102 14.9856 25.7444 15.0433L17.6751 17.8499C17.2688 17.9913 17.054 18.4352 17.1952 18.8415C17.3366 19.2478 17.7806 19.4625 18.1867 19.3213L26.0002 16.6037L36.4051 20.2228C36.3145 21.2174 36.0093 23.4457 34.9976 26.1141C33.7642 29.3671 31.2067 33.9094 26.0002 37.2979C20.8161 33.9238 18.2604 29.406 17.0245 26.171C15.6407 22.5488 15.5584 19.693 15.5577 19.6646C15.548 19.2349 15.1973 18.8953 14.7625 18.9032C14.3324 18.9123 13.9911 19.2684 14.0002 19.6984C14.0029 19.8235 14.0818 22.8042 15.546 26.6663C16.8966 30.2284 19.7351 35.2392 25.5884 38.8823C25.7144 38.9607 25.8572 39 26 39C26.1428 39 26.2856 38.9608 26.4116 38.8823C32.2649 35.2392 35.1034 30.2284 36.4539 26.6663C37.9183 22.8042 37.9972 19.8235 37.9998 19.6984C38.0073 19.3609 37.7962 19.0571 37.4773 18.9463Z" fill="#0E6063"/>
<path d="M31.7573 23.2306C31.4337 22.9231 30.909 22.9231 30.5855 23.2306L25.4619 28.0991L22.4145 25.2034C22.0909 24.8959 21.5662 24.8959 21.2427 25.2034C20.9191 25.511 20.9191 26.0095 21.2427 26.3169L24.876 29.7693C25.0377 29.9232 25.2499 30 25.4619 30C25.6739 30 25.8861 29.9232 26.0478 29.7693L31.7573 24.3441C32.0809 24.0366 32.0809 23.538 31.7573 23.2306Z" fill="#0E6063"/>
</svg>
