<svg width="67" height="70" viewBox="0 0 67 70" fill="none" xmlns="http://www.w3.org/2000/svg">
<path d="M15.3308 46.2166L6.38055 41.8957C5.87046 41.6495 5.25755 41.8633 5.01132 42.3734C4.76523 42.8834 4.97906 43.4964 5.48901 43.7427L14.4392 48.0635C14.5829 48.1328 14.7348 48.1658 14.8843 48.1658C15.2654 48.1658 15.6316 47.9522 15.8083 47.5859C16.0546 47.0757 15.8407 46.4627 15.3308 46.2166Z" fill="#0E6063"/>
<path d="M65.5616 15.4452L33.7791 0.101923C33.4973 -0.0339743 33.1692 -0.0339743 32.8876 0.101923L1.10494 15.4452C0.750565 15.6162 0.525391 15.9751 0.525391 16.3686V53.6308C0.525391 54.0243 0.750565 54.3832 1.10494 54.5542L32.8874 69.8975C33.0282 69.9655 33.1808 69.9995 33.3333 69.9995C33.4857 69.9995 33.6381 69.9655 33.7791 69.8975L65.5616 54.5542C65.9159 54.3832 66.1411 54.0243 66.1411 53.6308V16.3687C66.1411 15.975 65.9158 15.6164 65.5616 15.4452ZM33.3333 2.16404L62.7572 16.3686L54.2278 20.4863C54.1738 20.4451 54.1168 20.4071 54.0542 20.3769L24.8301 6.26898L33.3333 2.16404ZM22.5144 7.42835L51.8955 21.6123L45.8779 24.5174L16.5089 10.3392L22.5144 7.42835ZM52.583 23.5575V34.2961L46.9621 37.0097V26.2711L52.583 23.5575ZM64.0904 52.9875L34.3586 67.3403V32.3554L41.4506 28.9317C41.9605 28.6855 42.1744 28.0726 41.9281 27.5625C41.6819 27.0527 41.069 26.8386 40.5589 27.0849L33.3333 30.5733L30.4901 29.2006C29.98 28.9541 29.3671 29.1682 29.1208 29.6782C28.8746 30.1882 29.0884 30.8012 29.5984 31.0474L32.3079 32.3554V67.3403L2.57616 52.9872V18.0022L25.2166 28.9321C25.3603 29.0016 25.5122 29.0344 25.6616 29.0344C26.0428 29.0344 26.4089 28.8208 26.5857 28.4546C26.8319 27.9446 26.6181 27.3316 26.1081 27.0853L3.90929 16.3686L14.0954 11.4511L44.8971 26.321C44.9016 26.3272 44.9067 26.3328 44.9113 26.339V38.6435C44.9113 38.9963 45.0928 39.3243 45.3916 39.512C45.5576 39.6162 45.7469 39.6688 45.9368 39.6688C46.0889 39.6688 46.2413 39.6351 46.3825 39.5668L54.0542 35.8633C54.4086 35.6923 54.6337 35.3335 54.6337 34.9399V22.5676L64.0904 18.0024V52.9875Z" fill="#0E6063"/>
<path d="M11.0382 49.0105L6.37404 46.7589C5.86381 46.5124 5.25105 46.7265 5.00482 47.2364C4.75859 47.7464 4.97242 48.3594 5.48237 48.6057L10.1465 50.8573C10.2902 50.9267 10.4421 50.9595 10.5915 50.9595C10.9727 50.9595 11.3388 50.746 11.5156 50.3797C11.762 49.8696 11.5481 49.2568 11.0382 49.0105Z" fill="#0E6063"/>
</svg>
