<svg width="62" height="56" viewBox="0 0 62 56" fill="none" xmlns="http://www.w3.org/2000/svg">
<path d="M60.4517 30.5459C61.1552 30.5459 61.7245 29.9767 61.7245 29.2732V22.9097C61.7245 20.102 59.4414 17.8188 56.6336 17.8188H47.054C46.6885 17.0092 46.4519 16.1647 46.4519 15.2734C46.4519 12.9691 47.7308 10.8388 49.7902 9.71401C50.0897 9.54995 50.3122 9.27158 50.4042 8.94215C50.4974 8.61403 50.454 8.26109 50.2849 7.96399L47.1839 2.54751C46.5065 1.36676 45.4128 0.522836 44.104 0.172404C42.8014 -0.175641 41.4393 0.00715123 40.2734 0.685703L3.15881 22.2932C0.750058 23.6951 -0.0788323 26.8098 1.30941 29.2334L4.51604 34.8388C4.6863 35.1371 4.96968 35.3534 5.3015 35.4391C5.63212 35.5249 5.98506 35.4739 6.27846 35.2973C7.30505 34.6783 8.40384 34.3639 9.54355 34.3639C12.3217 34.3639 14.7486 36.1942 15.5747 38.8418C14.7509 41.4024 12.3742 43.2729 9.54355 43.2729C8.84006 43.2729 8.2708 43.8422 8.2708 44.5456V50.9091C8.2708 53.7168 10.5539 56 13.3617 56H56.6337C59.4414 56 61.7246 53.7169 61.7246 50.9091V44.5456C61.7246 43.8422 61.1553 43.2729 60.4519 43.2729C56.9432 43.2729 54.0884 40.418 54.0884 36.9094C54.0882 33.4008 56.9431 30.5459 60.4517 30.5459ZM41.555 2.88566C42.1305 2.55002 42.8067 2.45683 43.4455 2.63092C44.0955 2.80488 44.6374 3.22499 44.9743 3.81286L47.4762 8.18282C45.2477 9.85444 43.9066 12.4708 43.9066 15.2734C43.9066 16.1366 44.0487 16.9923 44.3001 17.8188H15.9036L41.555 2.88566ZM9.54343 31.8187C8.3789 31.8187 7.21676 32.0598 6.1243 32.5246L3.51927 27.9695C2.82198 26.7539 3.23589 25.1942 4.43896 24.4932L8.34036 22.222C8.30934 22.4492 8.2708 22.6743 8.2708 22.9098V29.2733C8.2708 29.9768 8.84006 30.546 9.54355 30.546C11.8852 30.546 13.9131 31.8319 15.0181 33.7209C13.4941 32.5218 11.5849 31.8187 9.54343 31.8187ZM51.5427 36.9094C51.5427 41.39 54.8675 45.1087 59.179 45.7276V50.9091C59.179 52.3123 58.0368 53.4545 56.6336 53.4545H26.0887V51.2272C26.0887 50.5237 25.5194 49.9545 24.8159 49.9545C24.1124 49.9545 23.5432 50.5237 23.5432 51.2272V53.4545H13.3615C11.9584 53.4545 10.8162 52.3123 10.8162 50.9091V45.7276C15.1277 45.1086 18.4524 41.39 18.4524 36.9094C18.4524 32.4288 15.1277 28.7101 10.8162 28.0912V22.9097C10.8162 21.5065 11.9584 20.3643 13.3615 20.3643H23.5432V23.2279C23.5432 23.9314 24.1124 24.5006 24.8159 24.5006C25.5194 24.5006 26.0887 23.9314 26.0887 23.2279V20.3643H56.6336C58.0368 20.3643 59.179 21.5065 59.179 22.9097V28.0912C54.8675 28.7101 51.5427 32.4288 51.5427 36.9094Z" fill="#0E6063"/>
<path d="M24.8158 29.5914C24.1123 29.5914 23.5431 30.1607 23.5431 30.8641V33.4095C23.5431 34.113 24.1123 34.6823 24.8158 34.6823C25.5193 34.6823 26.0886 34.113 26.0886 33.4095V30.8641C26.0886 30.1607 25.5193 29.5914 24.8158 29.5914Z" fill="#0E6063"/>
<path d="M24.8158 39.7726C24.1123 39.7726 23.5431 40.3419 23.5431 41.0454V43.5908C23.5431 44.2943 24.1123 44.8635 24.8158 44.8635C25.5193 44.8635 26.0886 44.2943 26.0886 43.5908V41.0454C26.0886 40.3419 25.5193 39.7726 24.8158 39.7726Z" fill="#0E6063"/>
<path d="M48.4877 25.7101C47.9271 25.2913 47.128 25.4031 46.7067 25.9649L31.4342 46.3282C31.0116 46.89 31.126 47.688 31.6889 48.1093C31.9177 48.2808 32.1848 48.364 32.4508 48.364C32.8385 48.364 33.2201 48.1887 33.47 47.8544L48.7424 27.4911C49.1651 26.9293 49.0507 26.1315 48.4877 25.7101Z" fill="#0E6063"/>
<path d="M34.9976 35.6372C37.1391 35.6372 38.8157 33.4012 38.8157 30.5463C38.8157 27.6915 37.1391 25.4555 34.9976 25.4555C32.8561 25.4555 31.1794 27.6915 31.1794 30.5463C31.1794 33.4012 32.8561 35.6372 34.9976 35.6372ZM34.9976 28.001C35.5171 28.001 36.2703 28.9928 36.2703 30.5463C36.2703 32.1 35.5171 33.0917 34.9976 33.0917C34.4781 33.0917 33.7248 32.0998 33.7248 30.5463C33.7248 28.9927 34.4781 28.001 34.9976 28.001Z" fill="#0E6063"/>
<path d="M45.1792 38.182C43.0377 38.182 41.3611 40.418 41.3611 43.2729C41.3611 46.1278 43.0377 48.3638 45.1792 48.3638C47.3207 48.3638 48.9973 46.1278 48.9973 43.2729C48.9973 40.418 47.3207 38.182 45.1792 38.182ZM45.1792 45.8183C44.6597 45.8183 43.9065 44.8264 43.9065 43.2729C43.9065 41.7194 44.6597 40.7275 45.1792 40.7275C45.6987 40.7275 46.452 41.7194 46.452 43.2729C46.452 44.8264 45.6987 45.8183 45.1792 45.8183Z" fill="#0E6063"/>
</svg>
