<svg width="414" height="357" viewBox="0 0 414 357" fill="none" xmlns="http://www.w3.org/2000/svg">
<path d="M161.503 356.805C161.004 356.754 160.511 356.644 160.022 356.489C158.293 355.906 156.861 354.656 156.046 353.045C146.593 334.079 187.494 310.008 283.072 259.669C308.651 246.175 339.921 229.73 361.481 216.542C339.875 227.455 310.698 242.84 283.554 257.159C162.861 320.796 136.784 333.164 128.587 330.521C126.825 329.964 124.895 328.347 124.069 326.689C122.416 323.389 123.736 319.39 127.041 317.68C241.291 258.994 359.599 190.227 391.856 159.925C343.609 182.589 201.956 252.556 103.479 301.498C101.841 302.286 99.9748 302.461 98.2324 301.861C96.5006 301.308 95.0849 300.045 94.2682 298.449C92.9719 295.851 91.8451 291.575 93.8052 285.93C96.1964 279.042 103.32 270.982 114.157 262.01C103.025 267.546 92.1943 272.977 81.8309 278.167C80.1914 278.97 78.3144 279.099 76.5796 278.576C74.8342 278.006 73.4185 276.743 72.6032 275.132C71.5868 273.092 70.6914 269.702 72.2689 265.274C73.9552 260.525 79.3517 254.44 87.6143 247.509C65.1466 258.183 61.9643 258.377 59.1345 257.501C57.3875 256.946 55.7979 255.59 54.9872 253.934C39.5733 223.028 137.533 165.286 311.955 75.9818C329.76 66.8503 346.964 58.0669 357.874 52.1598C327.234 57.8162 241.085 101.781 146.757 156.242C125.085 169.327 100.907 183.779 73.9592 199.783C65.2005 204.969 57.074 209.795 51.0559 213.41C47.5031 215.61 43.9655 217.811 40.4278 220.012C38.7822 221.026 36.7752 221.232 34.9254 220.788C33.0681 220.268 31.5027 218.975 30.6526 217.254C29.1674 214.258 28.4444 212.793 33.4022 208.934L33.1512 208.545C44.3343 201.591 88.1566 174.47 141.005 143.9C192.092 113.077 252.082 76.0841 287.451 51.4245C254.411 67.5401 205.447 92.0233 162.904 113.28C21.1933 184.119 21.0572 184.105 16.7043 182.576C14.9725 182.023 13.5129 180.741 12.6977 179.13C6.93049 167.543 21.8267 154.228 137.605 82.527C150.382 74.6137 163.99 66.1938 175.142 59.0853C146.794 72.3141 102.701 98.0307 75.1517 114.095C21.025 145.671 13.4506 149.417 7.85594 147.778C6.03037 147.245 4.18211 145.727 3.33057 144.021C-2.23544 132.864 12.3447 123.589 82.6987 85.3406C88.9406 81.9292 95.7785 78.2146 102.781 74.3805C15.8627 118.706 9.87482 119.903 5.33284 118.431C3.58744 117.861 1.95547 116.47 1.12813 114.828C-1.42649 109.711 -2.19031 108.196 57.1422 64.2493C34.9618 75.1036 17.8452 81.807 12.2717 80.2606C10.4613 79.7298 8.13205 77.8297 7.29261 76.1556C5.47457 72.521 1.67819 64.8723 42.0519 29.3806L45.296 18.5828L43.283 25.0548L40.0977 19.0722C40.5045 18.8257 41.4831 18.2131 42.8549 17.3374C68.1146 1.2539 74.9298 -0.873621 80.0329 0.489082C81.9068 0.996088 84.2814 2.90077 85.1466 4.62283C86.5684 7.49089 85.7925 10.9394 83.2833 12.9414C61.3359 30.2674 37.3967 51.2824 26.262 63.6603C48.1066 54.6187 95.6283 29.2936 138.354 4.71048C141.501 2.89392 145.514 3.85896 147.518 6.86148C149.522 9.86399 148.795 13.8925 145.876 16.0198C118.824 35.7821 82.3445 62.6607 54.3624 83.6158C80.3406 70.7079 111.395 54.74 132.764 43.7433C179.013 19.9849 178.944 20.0537 182.231 21.0968C183.976 21.6665 185.422 22.9326 186.251 24.5602C188.88 29.8508 187.106 35.3176 179.203 42.618C191.255 37.81 199.381 36.163 204.409 37.6695C207.287 38.52 209.559 40.384 210.819 42.8876C214.529 50.3308 214.759 50.7778 144.908 94.0262C118.085 110.618 80.013 134.202 54.0334 152.272C81.6178 138.739 120.591 119.241 156.778 101.158C320.934 19.1122 321.683 19.4148 326.172 20.8063C327.902 21.3745 329.377 22.6586 330.192 24.2697C332.757 29.4328 335.147 34.2149 297.024 61.1849C331.842 45.4608 359.746 36.3344 371.669 39.6115C376.928 41.0959 379.422 44.2387 380.618 46.6148C384.389 54.2154 384.389 54.2154 318.318 88.0217C257.594 119.113 81.1904 209.428 67.5785 241.809C89.355 232.382 154.483 198.98 212.862 169.029C375.813 85.4392 395.293 76.9762 401.849 79.076C403.595 79.6457 405.269 81.071 406.096 82.7135C406.908 84.3546 407.023 86.2431 406.438 87.955C405.838 89.6653 404.534 91.0777 402.899 91.836C275.608 151.053 143.648 220.198 100.062 253.912C401.414 103.069 405.522 104.603 408.796 105.766C410.526 106.335 412.031 107.622 412.83 109.246C413.644 110.872 413.769 112.807 413.181 114.549C411.803 118.512 411.779 118.6 361.604 142.507C294.386 174.518 144.005 246.178 112.241 282.054C402.688 137.678 405.401 138.648 408.952 139.642C410.681 140.226 412.127 141.492 412.942 143.103C419.029 155.311 391.99 179.177 350.352 207.064C385.499 189.148 391.42 187.551 395.285 188.773C397.047 189.329 398.736 190.756 399.577 192.415C407.298 207.953 377.308 225.496 289.606 271.681C257.703 288.486 210.569 313.305 185.557 330.867C345.316 251.057 347.393 251.675 350.879 252.708C352.594 253.275 354.07 254.544 354.87 256.153C356.563 259.518 355.162 263.554 351.785 265.227C351.129 265.524 350.448 265.758 349.764 265.87C338.849 269.87 234.181 321.713 165.375 356.136C164.095 356.703 162.788 356.935 161.503 356.805Z" fill="#6EAEB0"/>
</svg>
