<svg width="35" height="35" viewBox="0 0 35 35" fill="none" xmlns="http://www.w3.org/2000/svg">
<circle cx="17.5" cy="17.4995" r="17" fill="#6EAEB0" stroke="#6EAEB0"/>
<path d="M21.5862 7.99951H12.4138C9.42859 7.99951 7 10.4281 7 13.4133V22.5858C7 25.5709 9.42859 27.9995 12.4138 27.9995H21.5863C24.5714 27.9995 27 25.5709 27 22.5858V13.4133C27 10.4281 24.5714 7.99951 21.5862 7.99951V7.99951ZM25.8275 22.5858C25.8275 24.9244 23.9249 26.827 21.5862 26.827H12.4138C10.0751 26.827 8.17249 24.9244 8.17249 22.5858V13.4133C8.17249 11.0746 10.0751 9.172 12.4138 9.172H21.5863C23.9249 9.172 25.8275 11.0746 25.8275 13.4133V22.5858Z" fill="white"/>
<path d="M16.9998 12.5308C13.9844 12.5308 11.5312 14.9839 11.5312 17.9994C11.5312 21.0148 13.9844 23.468 16.9998 23.468C20.0153 23.468 22.4684 21.0148 22.4684 17.9994C22.4684 14.9839 20.0153 12.5308 16.9998 12.5308ZM16.9998 22.2955C14.6311 22.2955 12.7037 20.3683 12.7037 17.9994C12.7037 15.6306 14.6311 13.7032 16.9998 13.7032C19.3688 13.7032 21.296 15.6306 21.296 17.9994C21.296 20.3683 19.3688 22.2955 16.9998 22.2955Z" fill="white"/>
<path d="M22.5989 10.5889C21.7078 10.5889 20.983 11.3138 20.983 12.2048C20.983 13.0959 21.7078 13.8208 22.5989 13.8208C23.4901 13.8208 24.215 13.0959 24.215 12.2048C24.215 11.3137 23.4901 10.5889 22.5989 10.5889ZM22.5989 12.6482C22.3545 12.6482 22.1555 12.4492 22.1555 12.2048C22.1555 11.9602 22.3545 11.7614 22.5989 11.7614C22.8435 11.7614 23.0425 11.9602 23.0425 12.2048C23.0425 12.4492 22.8435 12.6482 22.5989 12.6482Z" fill="white"/>
</svg>
