<svg width="35" height="35" viewBox="0 0 35 35" fill="none" xmlns="http://www.w3.org/2000/svg">
<circle cx="17.5" cy="17.4995" r="17" fill="#6EAEB0" stroke="#6EAEB0"/>
<path d="M17.2473 6.99951C15.5864 6.99951 11.4782 7.174 9.29288 9.27196C7.71941 10.758 7.10784 13.0311 7.02043 15.741C6.8456 20.0243 7.80648 22.7338 9.37995 24.1325C9.72961 24.3947 10.6044 25.0951 12.2653 25.6196V27.8049C12.2653 27.8049 12.265 28.6784 12.7895 28.8532C12.8769 28.8532 12.965 28.9403 13.0524 28.9403C13.5769 28.9403 14.0129 28.3281 14.6248 27.7162C15.1493 27.1042 15.5867 26.6679 15.849 26.2308H17.0731H17.7731C19.434 26.2308 23.5422 26.0563 25.7276 23.9583C27.301 22.3849 27.9129 20.1111 27.9129 17.2264C28.0003 16.7893 28 16.2655 28 15.741C27.9126 12.5066 26.9517 10.3216 25.6405 9.09781C25.116 8.66074 22.8425 6.99951 17.9473 6.99951H17.2473ZM17.0731 8.66074H17.6844H17.7731H17.8602C22.4932 8.66074 24.2415 10.1471 24.4163 10.322C25.4653 11.1961 26.0772 13.1189 26.1646 15.6539V16.0039C26.252 16.5284 26.2517 16.9641 26.2517 17.2264C26.1643 19.8488 25.6395 21.5978 24.5905 22.7342C22.7548 24.3951 18.9092 24.4825 17.8602 24.4825H17.2473H17.1602H17.0731H16.199L14.8007 26.0566L13.9265 27.0179L13.7507 27.2791C13.5759 27.4539 13.3143 27.8046 13.1395 27.892V27.7162V23.9583C11.3912 23.5213 10.6919 22.909 10.517 22.7342C9.29322 21.6852 8.5939 19.1502 8.76873 15.741V14.8669C8.94356 12.7689 9.46873 11.3706 10.3429 10.409C12.1786 8.74815 16.0242 8.66074 17.0731 8.66074ZM16.9861 10.5832C16.549 10.5832 16.549 11.1961 16.9861 11.1961C20.2204 11.1961 23.018 13.3808 23.018 17.4893C23.018 17.9264 23.6293 17.9264 23.6293 17.4893C23.6293 13.0311 20.6575 10.4958 16.9861 10.5832ZM13.5219 11.3925C13.3362 11.3706 13.1402 11.4133 12.9653 11.5444C12.0912 11.9815 11.216 12.857 11.4782 13.8186C11.4782 13.8186 11.6538 14.6043 12.6153 16.2651C13.1398 17.0519 13.5765 17.7519 14.0136 18.2764C14.4507 18.8883 15.1497 19.5873 15.849 20.1117C17.2476 21.2481 19.434 22.3849 20.3956 22.6471C21.2697 22.9094 22.231 22.0342 22.668 21.16C22.8429 20.8104 22.7548 20.374 22.4051 20.1117C21.8806 19.5873 21.0075 18.976 20.3956 18.6264C19.9585 18.3641 19.4333 18.5383 19.2585 18.8005L18.8214 19.3247C18.6466 19.5869 18.2102 19.5876 18.2102 19.5876C15.3255 18.8009 14.5378 15.8281 14.5378 15.8281C14.5378 15.8281 14.5385 15.4791 14.8007 15.2169L15.3248 14.7798C15.5871 14.6049 15.7612 14.0798 15.499 13.6427C15.3242 13.3805 15.0629 12.8566 14.8007 12.5944C14.5385 12.2447 14.0136 11.6332 14.0136 11.6332C13.8825 11.5021 13.7077 11.4143 13.5219 11.3925ZM17.5973 12.3315C17.1602 12.2441 17.0731 12.9444 17.5102 12.9444C19.9578 13.1192 21.3572 14.7801 21.2697 16.8781C21.1823 17.3152 21.881 17.3152 21.881 16.8781C21.9684 14.4305 20.3946 12.4189 17.5973 12.3315ZM17.8602 13.9927C17.4231 13.9053 17.4231 14.6039 17.8602 14.6039C18.9092 14.6039 19.4327 15.2162 19.4327 16.2651C19.5201 16.7022 20.1327 16.7022 20.1327 16.2651C20.0452 14.8665 19.2589 13.9927 17.8602 13.9927Z" fill="white"/>
</svg>
