<svg width="35" height="35" viewBox="0 0 35 35" fill="none" xmlns="http://www.w3.org/2000/svg">
<circle cx="17.5" cy="17.4995" r="17" fill="#6EAEB0" stroke="#6EAEB0"/>
<path fill-rule="evenodd" clip-rule="evenodd" d="M16.7637 23.9451H18.0788C18.0788 23.9451 18.476 23.8999 18.6788 23.6735C18.8654 23.4656 18.8595 23.0752 18.8595 23.0752C18.8595 23.0752 18.8338 21.2475 19.6527 20.9783C20.46 20.7132 21.4967 22.7448 22.5955 23.5259C23.4264 24.1171 24.0577 23.9875 24.0577 23.9875L26.9957 23.9451C26.9957 23.9451 28.5326 23.847 27.8039 22.5954C27.7442 22.493 27.3795 21.6694 25.6195 19.9773C23.7773 18.2062 24.024 18.4926 26.2431 15.4291C27.5945 13.5633 28.1348 12.4243 27.9661 11.9364C27.8051 11.4718 26.8111 11.5946 26.8111 11.5946L23.5031 11.6159C23.5031 11.6159 23.2579 11.5813 23.076 11.6939C22.8983 11.8043 22.7839 12.0617 22.7839 12.0617C22.7839 12.0617 22.2604 13.5055 21.5621 14.7333C20.0891 17.3242 19.5001 17.4609 19.2594 17.3001C18.6994 16.9251 18.8392 15.7938 18.8392 14.9901C18.8392 12.4793 19.2068 11.4325 18.1233 11.1615C17.7637 11.0715 17.499 11.0121 16.5795 11.0025C15.3991 10.9898 14.4001 11.0062 13.8344 11.2933C13.4581 11.4841 13.1678 11.9095 13.3446 11.9339C13.5632 11.9643 14.0584 12.0722 14.321 12.4425C14.6599 12.9202 14.648 13.993 14.648 13.993C14.648 13.993 14.8427 16.9486 14.1931 17.3158C13.7472 17.5677 13.1355 17.0535 11.8223 14.703C11.1494 13.499 10.6414 12.1681 10.6414 12.1681C10.6414 12.1681 10.5434 11.9194 10.3687 11.7864C10.1567 11.6252 9.86039 11.5739 9.86039 11.5739L6.71694 11.5952C6.71694 11.5952 6.24505 11.6088 6.07182 11.8213C5.91771 12.0104 6.05957 12.4014 6.05957 12.4014C6.05957 12.4014 8.52058 18.3652 11.3071 21.3706C13.8622 24.1261 16.7637 23.9451 16.7637 23.9451Z" fill="white"/>
</svg>
