<svg width="70" height="70" viewBox="0 0 70 70" fill="none" xmlns="http://www.w3.org/2000/svg">
<path d="M65.1388 42.1496C65.1119 42.0939 65.1119 42.0301 65.1388 41.9744L69.0125 33.9925C69.3077 33.384 69.3077 32.686 69.0125 32.0778L65.1388 24.0948C65.1119 24.0391 65.1119 23.9753 65.1388 23.9196L68.4065 17.1854C68.7385 16.5014 68.6957 15.7084 68.2922 15.0641C67.8886 14.4197 67.1938 14.035 66.4337 14.035H56.6758C56.1256 14.035 55.6795 14.481 55.6795 15.0313C55.6795 15.5816 56.1255 16.0275 56.6758 16.0275H66.4337C66.5254 16.0275 66.5768 16.0787 66.6036 16.1216C66.6304 16.1645 66.6542 16.233 66.614 16.3156L63.3463 23.0498C63.0511 23.6582 63.0511 24.356 63.3463 24.9644L67.2201 32.9477C67.247 33.0034 67.247 33.0671 67.2201 33.1227L63.3466 41.1045C63.0513 41.7129 63.0513 42.4108 63.3464 43.0194L67.2201 51.0016C67.247 51.0572 67.247 51.1209 67.2201 51.1767L63.3466 59.1583C63.0513 59.7669 63.0513 60.4648 63.3466 61.0732L66.5721 67.7195C66.6121 67.8021 66.5885 67.8706 66.5617 67.9135C66.5347 67.9565 66.4835 68.0076 66.3917 68.0076H32.1419C32.1439 68.0057 32.1459 68.0036 32.148 68.0017C32.2394 67.9185 32.3287 67.833 32.416 67.7455C32.446 67.7154 32.4744 67.684 32.5038 67.6534C32.5622 67.5929 32.6205 67.5325 32.677 67.47C32.7111 67.4324 32.7435 67.3933 32.7767 67.355C32.8264 67.2978 32.8763 67.2407 32.9243 67.1821C32.9588 67.14 32.9916 67.0966 33.0252 67.0537C33.0698 66.9968 33.1144 66.9401 33.1573 66.882C33.1908 66.8366 33.2229 66.7903 33.2553 66.7442C33.2959 66.6865 33.3365 66.6289 33.3756 66.5701C33.4075 66.5223 33.438 66.4736 33.4688 66.4251C33.5061 66.3661 33.543 66.3072 33.5787 66.2473C33.6085 66.1973 33.6372 66.1466 33.6659 66.0959C33.6999 66.0357 33.7334 65.9751 33.7658 65.914C33.7933 65.8621 33.82 65.8097 33.8464 65.7571C33.8773 65.6953 33.9075 65.6331 33.9369 65.5703C33.9619 65.5169 33.9862 65.463 34.01 65.4087C34.0379 65.3451 34.0647 65.2813 34.091 65.2168C34.1132 65.1619 34.1351 65.1071 34.1562 65.0516C34.1811 64.9861 34.2046 64.9201 34.2277 64.8536C34.2471 64.7979 34.2664 64.7422 34.2845 64.6859C34.3064 64.6182 34.3265 64.55 34.3465 64.4815C34.3629 64.4252 34.3796 64.3691 34.3946 64.3122C34.4133 64.2422 34.43 64.1714 34.4467 64.1006C34.46 64.0441 34.4739 63.9879 34.4859 63.9309C34.5014 63.8578 34.5146 63.7838 34.528 63.71C34.5382 63.6542 34.5491 63.5988 34.558 63.5428C34.5703 63.4648 34.58 63.386 34.5898 63.3072C34.5965 63.2542 34.6045 63.2015 34.6101 63.1482C34.6194 63.0599 34.6254 62.9707 34.6317 62.8816C34.6348 62.8369 34.6395 62.7926 34.6419 62.7478C34.649 62.6132 34.6529 62.4779 34.6529 62.3416V16.0274H50.4789C51.029 16.0274 51.4752 15.5814 51.4752 15.0311C51.4752 14.4808 51.0292 14.0349 50.4789 14.0349H34.6529V7.65816C34.6529 3.43547 31.2174 0 26.9947 0H7.6583C3.43561 0 0.000273418 3.43547 0.000273418 7.65816V42.8701C0.000273418 43.4202 0.44625 43.8662 0.996543 43.8662C1.54684 43.8662 1.99281 43.4202 1.99281 42.8701V7.65816C1.99281 4.534 4.53441 1.9924 7.65844 1.9924H26.9948C30.119 1.9924 32.6606 4.534 32.6606 7.65816V60.0198C31.5957 57.2852 28.9361 55.3412 25.8293 55.3412H7.32963C5.22744 55.3412 3.33033 56.2321 1.99254 57.6547V49.1468C1.99254 48.5967 1.54656 48.1506 0.996269 48.1506C0.445976 48.1506 0 48.5965 0 49.1468V62.342C0 62.3971 0.00300781 62.4515 0.00410156 62.5063C0.00287109 62.5611 0 62.6154 0 62.6705C0 66.7121 3.28795 70 7.32949 70H66.3913C67.1516 70 67.8464 69.6153 68.2499 68.9709C68.6533 68.3266 68.6961 67.5335 68.3642 66.8494L65.1385 60.2031C65.1116 60.1475 65.1116 60.0837 65.1385 60.028L69.0121 52.0464C69.3074 51.4378 69.3074 50.7399 69.0121 50.1313L65.1388 42.1496ZM25.829 68.0076H7.6583C4.58938 68.0076 2.08428 65.5545 1.99678 62.5062C2.08414 59.6393 4.44186 57.3334 7.32963 57.3334H25.829C28.7719 57.3334 31.1661 59.7276 31.1661 62.6705C31.1661 65.6134 28.7719 68.0076 25.829 68.0076Z" fill="#0E6063"/>
<path d="M28.6714 60.1861C27.9532 59.3653 26.9171 58.8945 25.8291 58.8945H7.32985C6.29516 58.8945 5.32911 59.3059 4.60997 60.0528C3.8911 60.7994 3.5169 61.7806 3.556 62.8158C3.63298 64.8523 5.32063 66.4475 7.39807 66.4475H25.8291C26.3793 66.4475 26.8254 66.0015 26.8254 65.4512C26.8254 64.9009 26.3794 64.455 25.8291 64.455H7.39807C6.41315 64.455 5.58272 63.6858 5.54704 62.7404C5.52858 62.2512 5.70536 61.7874 6.04524 61.4346C6.3854 61.0813 6.84163 60.8866 7.32999 60.8866H25.8293C26.3428 60.8866 26.8321 61.1095 27.1721 61.498C27.1876 61.5156 27.2109 61.5423 27.184 61.6018C27.1509 61.6746 27.0957 61.6746 27.0749 61.6746H18.511C17.9608 61.6746 17.5147 62.1206 17.5147 62.6709C17.5147 63.2211 17.9607 63.6672 18.511 63.6672H27.0749C27.9138 63.6672 28.6509 63.1913 28.9984 62.4251C29.3423 61.6674 29.2169 60.8094 28.6714 60.1861Z" fill="#0E6063"/>
</svg>
