<svg width="35" height="35" viewBox="0 0 35 35" fill="none" xmlns="http://www.w3.org/2000/svg">
<circle cx="17.5" cy="17.4995" r="17" fill="#6EAEB0" stroke="#6EAEB0"/>
<path d="M28 17.2294C28 22.8788 23.3846 27.4585 17.69 27.4585C15.8829 27.4585 14.1853 26.9963 12.7076 26.1869L7 27.9995L8.86053 22.5097C7.92239 20.9689 7.3821 19.1597 7.3821 17.2287C7.38279 11.5793 11.9968 6.99951 17.6914 6.99951C23.3853 7.00088 28 11.58 28 17.2294ZM17.6893 8.63065C12.9103 8.63065 9.02283 12.4887 9.02283 17.2314C9.02283 19.1132 9.63638 20.8553 10.6738 22.2727L9.59187 25.4658L12.9213 24.4079C14.2908 25.3063 15.9295 25.8295 17.6893 25.8295C22.4684 25.8295 26.3572 21.9721 26.3572 17.2294C26.3586 12.4887 22.4691 8.63065 17.6893 8.63065ZM22.8964 19.5857C22.832 19.4823 22.6635 19.4193 22.4116 19.2933C22.1602 19.1673 20.916 18.5613 20.6852 18.4791C20.4524 18.3949 20.284 18.3524 20.1155 18.6037C19.9491 18.855 19.4643 19.4193 19.3157 19.5877C19.1685 19.7555 19.0212 19.7767 18.7685 19.6528C18.5159 19.5254 17.701 19.2625 16.7354 18.4086C15.9843 17.7429 15.4768 16.9233 15.3303 16.672C15.1817 16.4213 15.3152 16.2857 15.4405 16.1611C15.5535 16.0481 15.6932 15.868 15.8199 15.7208C15.9466 15.575 15.9884 15.4715 16.0726 15.3038C16.1554 15.136 16.1137 14.9902 16.0514 14.8635C15.9884 14.7375 15.4837 13.5049 15.2721 13.0029C15.0619 12.5017 14.8516 12.5845 14.7037 12.5845C14.5565 12.5845 14.388 12.564 14.2196 12.564C14.0511 12.564 13.7772 12.6249 13.5465 12.8763C13.3157 13.1276 12.6624 13.7336 12.6624 14.9676C12.6624 16.2029 13.567 17.3937 13.6937 17.5608C13.821 17.7272 15.4426 20.3424 18.0112 21.3462C20.5811 22.3494 20.5811 22.0146 21.0441 21.9721C21.5083 21.9297 22.5396 21.3661 22.7491 20.7813C22.9601 20.1938 22.9601 19.6904 22.8964 19.5857Z" fill="white"/>
</svg>
